<?xml version="1.0" encoding="utf-8"?>
<!-- Generator: Adobe Illustrator 16.0.0, SVG Export Plug-In . SVG Version: 6.00 Build 0)  -->
<!DOCTYPE svg PUBLIC "-//W3C//DTD SVG 1.1//EN" "http://www.w3.org/Graphics/SVG/1.1/DTD/svg11.dtd">
<svg version="1.1" id="ic-youtube-blanc" xmlns="http://www.w3.org/2000/svg" xmlns:xlink="http://www.w3.org/1999/xlink" x="0px"
	 y="0px" width="24px" height="24px" viewBox="0 0 24 24" enable-background="new 0 0 24 24" xml:space="preserve">
<path id="play" fill="#FFFFFF" d="M23.2,6.5c-0.3-1-1-1.8-2-2C19.4,4,12.3,4,12.3,4S5.2,4,3.4,4.5c-1,0.3-1.7,1-2,2C1,8.3,1,12,1,12
	s0,3.7,0.5,5.5c0.3,1,1,1.8,2,2C5.2,20,12.3,20,12.3,20s7.1,0,8.9-0.5c1-0.3,1.7-1,2-2c0.5-1.8,0.5-5.5,0.5-5.5S23.6,8.3,23.2,6.5
	 M10,15.4V8.6l5.9,3.4L10,15.4z"/>
</svg>
